<?xml version="1.0" standalone="no"?>
<!DOCTYPE svg PUBLIC "-//W3C//DTD SVG 20010904//EN"
 "http://www.w3.org/TR/2001/REC-SVG-20010904/DTD/svg10.dtd">
<svg version="1.0" xmlns="http://www.w3.org/2000/svg"
 width="1200.000000pt" height="1239.000000pt" viewBox="0 0 1200.000000 1239.000000"
 preserveAspectRatio="xMidYMid meet">

<g transform="translate(0.000000,1239.000000) scale(0.100000,-0.100000)"
fill="#000000" stroke="none">
<path d="M5720 12194 c-1409 -55 -2633 -513 -3665 -1370 -165 -136 -559 -530
-695 -694 -747 -900 -1196 -1972 -1324 -3165 -38 -355 -45 -850 -16 -1180 74
-840 288 -1595 659 -2320 703 -1374 1896 -2424 3332 -2930 225 -80 398 -35
476 123 l28 57 -3 780 c-2 429 -5 782 -7 783 -2 2 -25 -1 -52 -6 -189 -41
-666 -59 -868 -33 -408 52 -690 174 -892 384 -97 101 -159 200 -213 337 -85
214 -218 456 -341 620 -74 98 -218 235 -295 280 -123 72 -233 171 -271 243 -8
16 -13 45 -11 65 3 33 8 39 52 61 76 38 219 41 348 7 235 -60 440 -177 605
-343 75 -76 113 -128 261 -358 142 -220 341 -393 557 -481 303 -125 697 -107
1071 47 l72 30 7 47 c38 266 174 560 336 728 l40 41 -228 27 c-907 109 -1394
276 -1788 615 -315 271 -539 710 -634 1241 -45 256 -55 389 -56 745 0 314 2
350 23 470 64 350 216 643 494 949 l45 50 -28 86 c-112 347 -119 814 -19 1213
46 181 104 343 127 352 10 3 51 9 93 12 292 22 802 -187 1428 -585 l132 -84
168 41 c275 66 536 110 857 143 196 20 824 17 1035 -5 296 -31 540 -72 813
-138 l168 -41 107 70 c532 346 1033 570 1335 598 91 8 202 -3 221 -21 24 -24
105 -289 136 -443 16 -81 35 -201 41 -267 16 -160 6 -436 -20 -587 -21 -117
-64 -286 -82 -320 -8 -15 7 -38 86 -128 318 -367 462 -654 510 -1020 21 -150
20 -531 0 -745 -86 -906 -421 -1489 -1047 -1820 -370 -195 -802 -303 -1560
-391 l-148 -17 66 -70 c189 -200 300 -484 335 -857 8 -89 10 -438 8 -1210 l-4
-1085 24 -53 c32 -70 103 -134 176 -157 129 -40 248 -11 660 163 1789 754
3095 2384 3489 4352 238 1186 135 2384 -296 3464 -82 207 -273 594 -379 771
-468 783 -1079 1422 -1834 1918 -881 579 -1911 923 -2980 996 -162 11 -541 20
-665 15z"/>
<path d="M2106 4057 c-46 -34 17 -117 88 -117 39 0 56 16 56 51 0 57 -96 101
-144 66z"/>
<path d="M2355 3848 c-23 -20 -26 -29 -21 -56 16 -71 92 -124 144 -100 48 23
38 108 -17 148 -46 32 -75 34 -106 8z"/>
<path d="M2589 3529 c-41 -41 -11 -127 61 -176 41 -28 64 -29 90 -3 39 39 16
135 -43 182 -31 24 -82 23 -108 -3z"/>
<path d="M2893 3198 c-12 -6 -27 -24 -34 -41 -11 -26 -10 -35 10 -71 30 -56
73 -88 125 -93 52 -6 86 20 86 65 0 42 -41 104 -85 129 -44 25 -68 27 -102 11z"/>
<path d="M3291 2914 c-61 -51 -23 -124 79 -150 138 -36 204 82 85 151 -58 35
-123 34 -164 -1z"/>
<path d="M4277 2902 c-95 -63 -66 -162 48 -162 122 0 196 118 104 165 -39 21
-118 19 -152 -3z"/>
<path d="M3814 2846 c-35 -16 -64 -51 -64 -79 0 -10 14 -32 30 -49 29 -29 33
-30 105 -26 62 3 78 7 100 28 60 57 4 140 -94 140 -25 -1 -60 -7 -77 -14z"/>
</g>
</svg>
