<?xml version="1.0" standalone="no"?>
<!DOCTYPE svg PUBLIC "-//W3C//DTD SVG 20010904//EN"
 "http://www.w3.org/TR/2001/REC-SVG-20010904/DTD/svg10.dtd">
<svg version="1.0" xmlns="http://www.w3.org/2000/svg"
 width="130.000000pt" height="130.000000pt" viewBox="0 0 130.000000 130.000000"
 preserveAspectRatio="xMidYMid meet">

<g transform="translate(0.000000,130.000000) scale(0.100000,-0.100000)"
fill="#000000" stroke="none">
<path d="M35 1265 l-25 -24 0 -591 0 -591 25 -24 24 -25 591 0 591 0 24 25 25
24 0 591 0 591 -25 24 -24 25 -591 0 -591 0 -24 -25z m332 -179 c31 -28 38
-41 38 -73 0 -104 -113 -156 -191 -89 -20 17 -28 34 -32 74 -4 49 -2 54 31 87
49 49 102 49 154 1z m630 -279 c41 -22 70 -56 90 -107 14 -37 18 -88 21 -277
l4 -233 -101 0 -101 0 0 183 c0 217 -7 253 -56 273 -46 19 -105 4 -130 -34
-17 -24 -19 -52 -22 -225 l-4 -198 -96 3 -97 3 0 310 0 310 93 3 92 3 0 -43 0
-42 34 33 c48 46 98 62 178 57 36 -3 79 -11 95 -19z m-609 -304 l2 -313 -100
0 -100 0 0 308 c0 170 3 312 7 316 4 4 48 5 98 4 l90 -3 3 -312z"/>
</g>
</svg>
