<svg xmlns="http://www.w3.org/2000/svg" width="512" height="512" viewBox="0 0 512 512" style="overflow: visible;" data-bbox="139.5008163819807 167.90025622019937 232.9983670917165 175.49879440572823"><g data-uid="o_f7m0dd6ll_25"><g transform="matrix(2.4999825613847406, 0, 0, 2.4999825613847406, 128.5008965218857, 131.35120568735684)" fill="rgba(153,236,239,1)" data-uid="o_f7m0dd6ll_6"><path d="M34.9 27.5c0.9 0 1.7-0.2 2.5-0.5l4.6 5.9h18l4.6-5.9c0.8 0.3 1.6 0.5 2.5 0.5c3.5 0 6.3-2.8 6.3-6.3s-2.8-6.3-6.3-6.3   s-6.3 2.8-6.3 6.3c0 1.1 0.3 2.2 0.8 3.1L58 28.9H43.9l-3.6-4.6c0.5-0.9 0.8-2 0.8-3.1c0-3.5-2.8-6.3-6.3-6.3s-6.3 2.8-6.3 6.3   S31.4 27.5 34.9 27.5z M67 18.9c1.3 0 2.3 1 2.3 2.3s-1 2.3-2.3 2.3s-2.3-1-2.3-2.3S65.7 18.9 67 18.9z M34.9 18.9   c1.3 0 2.3 1 2.3 2.3s-1 2.3-2.3 2.3s-2.3-1-2.3-2.3S33.6 18.9 34.9 18.9z" transform="matrix(1, 0, 0, 1, 0, 0)" fill="rgba(153,236,239,1)" data-uid="o_f7m0dd6ll_7"></path><path d="M69.2 48.1H32.7c-0.8-2.5-3.2-4.3-6-4.3c-3.5 0-6.3 2.8-6.3 6.3c0 3.5 2.8 6.3 6.3 6.3c2.8 0 5.1-1.8 6-4.3h36.5   c0.8 2.5 3.2 4.3 6 4.3c3.5 0 6.3-2.8 6.3-6.3c0-3.5-2.8-6.3-6.3-6.3C72.4 43.8 70 45.6 69.2 48.1z M26.8 52.3   c-1.3 0-2.3-1-2.3-2.3s1-2.3 2.3-2.3s2.3 1 2.3 2.3S28 52.3 26.8 52.3z M77.4 50.1c0 1.3-1 2.3-2.3 2.3s-2.3-1-2.3-2.3   s1-2.3 2.3-2.3S77.4 48.8 77.4 50.1z" transform="matrix(1, 0, 0, 1, 0, 0)" fill="rgba(153,236,239,1)" data-uid="o_f7m0dd6ll_8"></path><path d="M91.2 62.9c-2.8 0-5.1 1.8-6 4.3h-9.2l-8.1-9.6H34l-8.1 9.6h-9.2c-0.8-2.5-3.2-4.3-6-4.3c-3.5 0-6.3 2.8-6.3 6.3   s2.8 6.3 6.3 6.3c2.8 0 5.1-1.8 6-4.3h11l8.1-9.6h30.3l8.1 9.6h11c0.8 2.5 3.2 4.3 6 4.3c3.5 0 6.3-2.8 6.3-6.3   S94.7 62.9 91.2 62.9z M10.7 71.5c-1.3 0-2.3-1-2.3-2.3s1-2.3 2.3-2.3c1.1 0 1.9 0.7 2.2 1.7v1.2C12.6 70.8 11.7 71.5 10.7 71.5z    M91.2 71.5c-1.1 0-1.9-0.7-2.2-1.7v-1.2c0.3-1 1.1-1.7 2.2-1.7c1.3 0 2.3 1 2.3 2.3S92.5 71.5 91.2 71.5z" transform="matrix(1, 0, 0, 1, 0, 0)" fill="rgba(153,236,239,1)" data-uid="o_f7m0dd6ll_9"></path><path d="M67 72.5c-0.9 0-1.7 0.2-2.5 0.5l-4.6-5.8H42L37.4 73c-0.8-0.3-1.6-0.5-2.5-0.5c-3.5 0-6.3 2.8-6.3 6.3s2.8 6.3 6.3 6.3   s6.3-2.8 6.3-6.3c0-1.1-0.3-2.2-0.8-3.1l3.5-4.5H58l3.5 4.5c-0.5 0.9-0.8 2-0.8 3.1c0 3.5 2.8 6.3 6.3 6.3s6.3-2.8 6.3-6.3   S70.5 72.5 67 72.5z M34.9 81.1c-1.3 0-2.3-1-2.3-2.3s1-2.3 2.3-2.3s2.3 1 2.3 2.3S36.2 81.1 34.9 81.1z M67 81.1   c-1.3 0-2.3-1-2.3-2.3s1-2.3 2.3-2.3s2.3 1 2.3 2.3S68.3 81.1 67 81.1z" transform="matrix(1, 0, 0, 1, 0, 0)" fill="rgba(153,236,239,1)" data-uid="o_f7m0dd6ll_10"></path><path d="M10.7 37.2c2.8 0 5.1-1.8 6-4.3h9.2l8.1 9.6h34l8.1-9.6h9.2c0.8 2.5 3.2 4.3 6 4.3c3.5 0 6.3-2.8 6.3-6.3s-2.8-6.3-6.3-6.3   c-2.8 0-5.1 1.8-6 4.3h-11l-8.1 9.6H35.8l-8.1-9.6h-11c-0.8-2.5-3.2-4.3-6-4.3c-3.5 0-6.3 2.8-6.3 6.3S7.2 37.2 10.7 37.2z    M91.2 28.6c1.3 0 2.3 1 2.3 2.3s-1 2.3-2.3 2.3c-1.1 0-1.9-0.7-2.2-1.7v-1.2C89.3 29.3 90.2 28.6 91.2 28.6z M10.7 28.6   c1.1 0 1.9 0.7 2.2 1.7v1.2c-0.3 1-1.1 1.7-2.2 1.7c-1.3 0-2.3-1-2.3-2.3S9.4 28.6 10.7 28.6z" transform="matrix(1, 0, 0, 1, 0, 0)" fill="rgba(153,236,239,1)" data-uid="o_f7m0dd6ll_11"></path></g><path d="M88.307 0.013C39.536 0.013 0 39.549 0 88.32c0 48.77 39.536 88.307 88.307 88.307 c48.77 0 88.307-39.537 88.307-88.307C176.613 39.549 137.076 0.013 88.307 0.013z M88.307 163.341 c-41.433 0-75.021-33.589-75.021-75.021c0-41.433 33.587-75.021 75.021-75.021c41.432 0 75.021 33.587 75.021 75.021 C163.327 129.752 129.738 163.341 88.307 163.341z" transform="matrix(0.6150297164603984, 0, 0, 0.6150297164603984, 201.33822988719646, 201.3302320236373)" fill="rgba(153,236,239,1)" data-uid="o_f7m0dd6ll_12"></path><path transform="matrix(0.928750216960907, 0, 0, 0.928750216960907, 209.56248481337195, 209.56248952127245)" data-type="circle" data-cx="50" data-cy="50" data-r="50" d="M50 50m-50 0a50 50 0 1 0 100 0a50 50 0 1 0 -100 0" fill="none" data-uid="o_f7m0dd6ll_13"></path><g transform="matrix(0.6190968155860901, 0.6356517672538757, -0.6356517672538757, 0.6190968155860901, 256.8277588612235, 193.61290456033495)" fill="#94a4af" data-uid="o_f7m0dd6ll_14"><path d="M42.7 33.7h14.6c2 5.7 7.4 9.8 13.8 9.8c8.2 0 14.8-6.6 14.8-14.8c0-8.2-6.6-14.8-14.8-14.8c-6.4 0-11.7 4.1-13.8 9.9    H42.7c-2-5.7-7.4-9.9-13.8-9.9c-8.2 0-14.8 6.6-14.8 14.8c0 8.2 6.6 14.8 14.8 14.8C35.4 43.5 40.7 39.4 42.7 33.7z M29 33.7    c-2.7 0-4.9-2.2-4.9-4.9s2.2-4.9 4.9-4.9c2.7 0 4.9 2.2 4.9 4.9S31.7 33.7 29 33.7z" transform="matrix(1, 0, 0, 1, 0, 0)" fill="#94a4af" data-uid="o_f7m0dd6ll_15"></path><path d="M71 56.5c-6.4 0-11.7 4.1-13.8 9.9H42.7c-2-5.7-7.4-9.9-13.8-9.9c-8.2 0-14.8 6.6-14.8 14.8c0 8.2 6.6 14.8 14.8 14.8    c6.4 0 11.7-4.1 13.8-9.8h14.6c2 5.7 7.4 9.8 13.8 9.8c8.2 0 14.8-6.6 14.8-14.8C85.8 63.1 79.2 56.5 71 56.5z M71 76.2    c-2.7 0-4.9-2.2-4.9-4.9c0-2.7 2.2-4.9 4.9-4.9c2.7 0 4.9 2.2 4.9 4.9C76 74 73.7 76.2 71 76.2z" transform="matrix(1, 0, 0, 1, 0, 0)" fill="#94a4af" data-uid="o_f7m0dd6ll_16"></path></g></g></svg>